solid "<stl unit=MM>"
   facet normal -1 -4.78780298892106E-15 2.89120579329476E-15
      outer loop
         vertex 10.285000404343 31.9224999463558 -8.28330459778925E-14
         vertex 10.285000404343 26.8500003635883 -9.97465998686664E-15
         vertex 10.285000404343 31.9224999463558 2.39999999999992
      endloop
   endfacet
   facet normal -1 -4.78780298892105E-15 2.89120579329474E-15
      outer loop
         vertex 10.285000404343 31.9224999463558 2.39999999999992
         vertex 10.285000404343 26.8500003635883 -9.97465998686664E-15
         vertex 10.285000404343 26.8500003635883 2.39999999999999
      endloop
   endfacet
   facet normal -4.73106432781326E-15 1 -1.73472347597681E-14
      outer loop
         vertex 14.6850001230836 31.9224999463558 -9.66961901957019E-14
         vertex 10.285000404343 31.9224999463558 -8.28330459778925E-14
         vertex 14.6850001230836 31.9224999463559 2.3999999999999
      endloop
   endfacet
   facet normal -4.73106432781326E-15 1 -1.73472347597681E-14
      outer loop
         vertex 14.6850001230836 31.9224999463559 2.3999999999999
         vertex 10.285000404343 31.9224999463558 -8.28330459778925E-14
         vertex 10.285000404343 31.9224999463558 2.39999999999992
      endloop
   endfacet
   facet normal 1 4.78780298892106E-15 -2.89120579329474E-15
      outer loop
         vertex 14.6850001230836 26.8500003635883 -2.3837804204676E-14
         vertex 14.6850001230836 31.9224999463558 -9.66961901957019E-14
         vertex 14.6850001230836 26.8500003635883 2.39999999999998
      endloop
   endfacet
   facet normal 1 4.78780298892105E-15 -2.89120579329476E-15
      outer loop
         vertex 14.6850001230836 26.8500003635883 2.39999999999998
         vertex 14.6850001230836 31.9224999463558 -9.66961901957019E-14
         vertex 14.6850001230836 31.9224999463559 2.3999999999999
      endloop
   endfacet
   facet normal 4.73106432781324E-15 -1 1.3010426069826E-14
      outer loop
         vertex 10.285000404343 26.8500003635883 -9.97465998686664E-15
         vertex 14.6850001230836 26.8500003635883 -2.3837804204676E-14
         vertex 10.285000404343 26.8500003635883 2.39999999999999
      endloop
   endfacet
   facet normal 4.73106432781324E-15 -1 1.3010426069826E-14
      outer loop
         vertex 10.285000404343 26.8500003635883 2.39999999999999
         vertex 14.6850001230836 26.8500003635883 -2.3837804204676E-14
         vertex 14.6850001230836 26.8500003635883 2.39999999999998
      endloop
   endfacet
   facet normal -3.15071479635847E-15 -1.43634089667633E-14 -1
      outer loop
         vertex 14.6850001230836 31.9224999463558 -9.66961901957019E-14
         vertex 14.6850001230836 26.8500003635883 -2.3837804204676E-14
         vertex 10.285000404343 31.9224999463558 -8.28330459778925E-14
      endloop
   endfacet
   facet normal -3.15071479635847E-15 -1.43634089667633E-14 -1
      outer loop
         vertex 10.285000404343 31.9224999463558 -8.28330459778925E-14
         vertex 14.6850001230836 26.8500003635883 -2.3837804204676E-14
         vertex 10.285000404343 26.8500003635883 -9.97465998686664E-15
      endloop
   endfacet
   facet normal 3.15404288520873E-15 1.43634089667633E-14 1
      outer loop
         vertex 14.6850001230836 26.8500003635883 2.39999999999998
         vertex 14.6850001230836 31.9224999463559 2.3999999999999
         vertex 10.285000404343 26.8500003635883 2.39999999999999
      endloop
   endfacet
   facet normal 3.25260672537151E-15 1.42779124848183E-14 1
      outer loop
         vertex 10.285000404343 26.8500003635883 2.39999999999999
         vertex 14.6850001230836 31.9224999463559 2.3999999999999
         vertex 10.285000404343 31.9224999463558 2.39999999999992
      endloop
   endfacet
endsolid
